<?xml version="1.0" encoding="utf-8"?>
<!-- Generator: Adobe Illustrator 21.0.0, SVG Export Plug-In . SVG Version: 6.00 Build 0)  -->
<svg version="1.1" id="Layer_1" xmlns="http://www.w3.org/2000/svg" xmlns:xlink="http://www.w3.org/1999/xlink" x="0px" y="0px"
	 viewBox="0 0 1024 420" style="enable-background:new 0 0 1024 420;" xml:space="preserve">
<style type="text/css">
	.st0{fill:#1F1F1F;}
	.st1{fill:#FAC800;}
	.st2{fill:#E86121;}
	.st3{fill:#0191B2;}
</style>
<g>
	
		<image style="overflow:visible;opacity:0.5;enable-background:new    ;" width="1938" height="896" xlink:href="A2EBFEAA.png"  transform="matrix(0.2063 0 0 0.2057 156.0322 121.8631)">
	</image>
	<g>
		<g>
			<path class="st0" d="M160.4,212.9c0-15.2,3.2-27.1,9.6-35.6c6.4-8.5,15.2-12.8,26.3-12.8c7.1,0,13.4,1.6,19,4.9s9.9,8,13.3,14.3
				v-17.4h4.8v93.6c0,12.6-3.2,22.4-9.7,29.5c-6.5,7.1-15.3,10.6-26.3,10.6c-6.4,0-12.2-1.4-17.6-4.1c-5.3-2.8-9.8-6.7-13.6-11.9
				l3.4-3.2c3.7,4.7,7.8,8.3,12.1,10.8c4.4,2.5,9.6,3.7,15.5,3.7c9.8,0,17.4-2.9,22.9-8.9c5.4-5.9,8.3-14.3,8.4-25.2v-14.6
				c-3.3,5.4-7.8,9.6-13.4,12.5s-12,4.4-19,4.4c-11,0-19.7-4.4-26.1-13.1c-6.4-8.7-9.6-20.8-9.6-36L160.4,212.9L160.4,212.9z
				 M165.2,214.8c0,13.6,2.7,24.3,8.1,32.1c5.4,7.8,12.9,11.6,22.7,11.6c8,0,14.9-1.9,20.5-5.6s9.7-9,12-15.7V194
				c-5.2-16.5-15.9-24.7-32.3-24.7c-9.8,0-17.4,3.9-22.8,11.5C167.9,188.5,165.2,199.8,165.2,214.8z"/>
			<path class="st0" d="M297.9,263.3c-7.7,0-14.7-2.1-21.2-6.2c-6.5-4.1-11.5-9.8-15.1-17.1c-3.6-7.2-5.4-15.3-5.4-24v-4
				c0-8.8,1.7-16.9,5.3-24.2c3.5-7.3,8.4-13,14.6-17.1c6.1-4.1,12.8-6.1,20.2-6.1c10.6,0,19.3,3.8,26,11.4
				c6.7,7.6,10.1,17.5,10.1,29.8v5H261v5.2c0,7.8,1.6,14.9,4.9,21.5s7.8,11.7,13.4,15.5c5.7,3.7,11.9,5.6,18.6,5.6
				c6.4,0,11.8-1,16.3-3.2c4.5-2.2,8.4-5.4,11.9-9.8l3.4,2.4C322.4,258.1,311.9,263.3,297.9,263.3z M296.1,169.3
				c-9.3,0-17.1,3.4-23.6,10.3c-6.5,6.9-10.3,15.7-11.4,26.4h66.3v-1.1c0-6.5-1.4-12.5-4-18c-2.8-5.5-6.5-9.8-11.3-12.9
				C307.4,170.9,302.1,169.3,296.1,169.3z"/>
			<path class="st0" d="M388.7,263.3c-7.7,0-14.7-2.1-21.2-6.2c-6.5-4.1-11.5-9.8-15.1-17.1c-3.6-7.2-5.4-15.3-5.4-24v-4
				c0-8.8,1.7-16.9,5.3-24.2c3.5-7.3,8.4-13,14.6-17.1c6.1-4.1,12.8-6.1,20.2-6.1c10.6,0,19.3,3.8,26,11.4
				c6.7,7.6,10.1,17.5,10.1,29.8v5h-71.3v5.2c0,7.8,1.6,14.9,4.9,21.5c3.3,6.5,7.8,11.7,13.4,15.5c5.7,3.7,11.9,5.6,18.6,5.6
				c6.4,0,11.8-1,16.3-3.2c4.5-2.2,8.4-5.4,11.9-9.8l3.4,2.4C413.2,258.1,402.7,263.3,388.7,263.3z M386.9,169.3
				c-9.3,0-17.1,3.4-23.6,10.3c-6.5,6.9-10.3,15.7-11.4,26.4h66.3v-1.1c0-6.5-1.4-12.5-4-18c-2.8-5.5-6.5-9.8-11.3-12.9
				C398.2,170.9,392.9,169.3,386.9,169.3z"/>
			<path class="st0" d="M451.2,261.5h-4.7V126.4h4.7V261.5z"/>
			<path class="st0" d="M543.9,261.5c-1.2-4-1.7-9.8-1.7-17.4c-3.8,6.1-8.9,10.9-15.4,14.1c-6.5,3.4-13.9,5-22.1,5
				c-8.8,0-15.9-2.4-21.3-7.2c-5.3-4.7-8-11-8-18.7c0-8.7,4-15.8,11.8-21c7.9-5.3,18.4-7.9,31.4-8h23.5v-13.9c0-8-2.5-14.1-7.5-18.5
				c-5-4.4-12.1-6.6-21.5-6.6c-8.7,0-15.9,2.2-21.7,6.7s-8.7,10-8.7,16.5l-4.7-0.2c0-7.8,3.4-14.3,10.2-19.7
				c6.8-5.4,15.2-8.1,25-8.1c10.3,0,18.4,2.6,24.5,7.7c6,5.2,9.1,12.3,9.3,21.7v45.5c0,10.4,0.9,17.6,2.5,21.3v0.8L543.9,261.5
				L543.9,261.5z M504.7,258.5c8.9,0,16.5-2,23-5.9c6.5-4,11.3-9.6,14.5-16.8v-22.6h-22c-13.6,0-24,2.7-31.3,8.1
				c-5.9,4.4-8.8,9.9-8.8,16.5c0,5.8,2.3,10.8,7,14.8C491.7,256.5,497.6,258.5,504.7,258.5z"/>
		</g>
	</g>
</g>
<g>
	
		<image style="overflow:visible;opacity:0.5;enable-background:new    ;" width="771" height="688" xlink:href="A2EBFEA9.png"  transform="matrix(0.2058 0 0 0.2065 586.5682 69.5453)">
	</image>
	<g>
		<path class="st1" d="M634.1,205.4h61.6c4.5,0,8.5-2.3,10.7-6.2l30.8-53.4c2.2-3.9,2.2-8.5,0-12.3L706.4,80
			c-2.2-3.9-6.3-6.2-10.7-6.2h-61.6c-4.5,0-8.5,2.3-10.7,6.2l-30.8,53.4c-2.2,3.9-2.2,8.5,0,12.3l30.8,53.4
			C625.6,203.1,629.6,205.4,634.1,205.4z"/>
	</g>
</g>
<g>
	
		<image style="overflow:visible;opacity:0.5;enable-background:new    ;" width="771" height="692" xlink:href="A2EBFEB6.png"  transform="matrix(0.2058 0 0 0.2056 713.3302 143.7828)">
	</image>
	<g>
		<path class="st2" d="M760.8,279.7h61.6c4.5,0,8.5-2.3,10.7-6.2l30.8-53.4c2.2-3.9,2.2-8.5,0-12.3l-30.8-53.4
			c-2.2-3.9-6.3-6.2-10.7-6.2h-61.6c-4.5,0-8.5,2.3-10.7,6.2l-30.8,53.4c-2.2,3.9-2.2,8.5,0,12.3l30.8,53.4
			C752.3,277.4,756.3,279.7,760.8,279.7z"/>
	</g>
</g>
<g>
	
		<image style="overflow:visible;opacity:0.5;enable-background:new    ;" width="771" height="692" xlink:href="A2EBFEB9.png"  transform="matrix(0.2058 0 0 0.2056 586.5682 215.7456)">
	</image>
	<g>
		<path class="st3" d="M634.1,351.6h61.6c4.5,0,8.5-2.3,10.7-6.2l30.8-53.4c2.2-3.9,2.2-8.5,0-12.3l-30.8-53.4
			c-2.2-3.9-6.3-6.2-10.7-6.2h-61.6c-4.5,0-8.5,2.3-10.7,6.2l-30.8,53.4c-2.2,3.9-2.2,8.5,0,12.3l30.8,53.4
			C625.6,349.4,629.6,351.6,634.1,351.6z"/>
	</g>
</g>
</svg>
