<?xml version="1.0" encoding="utf-8"?>
<!-- Generator: Adobe Illustrator 21.0.0, SVG Export Plug-In . SVG Version: 6.00 Build 0)  -->
<svg version="1.1" id="Layer_1" xmlns="http://www.w3.org/2000/svg" xmlns:xlink="http://www.w3.org/1999/xlink" x="0px" y="0px"
	 viewBox="0 0 92 92" style="enable-background:new 0 0 92 92;" xml:space="preserve">
<style type="text/css">
	.st0{fill:none;stroke:#0191B2;stroke-width:1.25;stroke-miterlimit:10;}
</style>
<g id="Page-1">
	<g id="Core" transform="translate(-212.000000, -422.000000)">
		<g id="shopping-cart" transform="translate(212.000000, 422.000000)">
			<path id="Shape" class="st0" d="M28.6,66.8c-3.8,0-7,3.1-7,7c0,3.8,3.1,6.9,7,6.9s7-3.1,7-6.9C35.6,70,32.4,66.8,28.6,66.8
				L28.6,66.8z M17.3,14l-2.6,4.2l0,0l12.5,26.4L22.4,53c-0.3,1-0.7,2.4-0.7,3.5c0,3.8,3.1,7,7,7h41.7v-7H30c-0.3,0-0.7-0.3-0.7-0.7
				v-0.3l3.1-5.9h25.7c2.8,0,4.9-1.4,5.9-3.5l12.5-22.6c0.7-0.7,0.7-1,0.7-1.7c0-2.1-1.4-3.5-3.5-3.5H22.4l-3.1-7l0,0L17.3,14z
				 M63.4,66.8c-3.8,0-7,3.1-7,7c0,3.8,3.1,6.9,7,6.9s6.9-3.1,6.9-6.9C70.3,70,67.2,66.8,63.4,66.8L63.4,66.8z"/>
		</g>
	</g>
</g>
</svg>
