<?xml version="1.0" encoding="utf-8"?>
<!-- Generator: Adobe Illustrator 21.0.0, SVG Export Plug-In . SVG Version: 6.00 Build 0)  -->
<svg version="1.1" id="Layer_1" xmlns="http://www.w3.org/2000/svg" xmlns:xlink="http://www.w3.org/1999/xlink" x="0px" y="0px"
	 viewBox="0 0 92 92" style="enable-background:new 0 0 92 92;" xml:space="preserve">
<style type="text/css">
	.st0{fill:none;stroke:#FFFFFF;stroke-miterlimit:10;}
	.st1{fill:#FCFCFC;}
</style>
<g>
	<g>
		<path class="st0" d="M45.6,9.9C65.7,9.9,82,26.2,82,46.3S65.7,82.6,45.6,82.6S9.3,66.3,9.3,46.3S25.5,9.9,45.6,9.9"/>
	</g>
</g>
<path class="st1" d="M61.7,30.2H29.6c-2.2,0-4,1.8-4,4l0,24.1c0,2.2,1.8,4,4,4h32.2c2.2,0,4-1.8,4-4V34.2C65.8,32,64,30.2,61.7,30.2
	z M61.7,38.2L45.7,48.3L29.6,38.2v-4l16.1,10.1l16.1-10.1V38.2z"/>
</svg>
