<?xml version="1.0" encoding="utf-8"?>
<!-- Generator: Adobe Illustrator 21.0.0, SVG Export Plug-In . SVG Version: 6.00 Build 0)  -->
<svg version="1.1" id="Layer_1" xmlns="http://www.w3.org/2000/svg" xmlns:xlink="http://www.w3.org/1999/xlink" x="0px" y="0px"
	 viewBox="0 0 200 92" style="enable-background:new 0 0 200 92;" xml:space="preserve">
<style type="text/css">
	.st0{fill:#FFFFFF;}
</style>
<g>
	
		<image style="overflow:visible;opacity:0.5;" width="293" height="240" xlink:href="E340468F.png"  transform="matrix(0.24 0 0 0.24 130.68 17.64)">
	</image>
	<g>
		<path class="st0" d="M190.6,19.8h-51.3c-3.5,0-6.4,2.9-6.4,6.4l0,38.4c0,3.5,2.9,6.4,6.4,6.4h51.3c3.5,0,6.4-2.9,6.4-6.4V26.2
			C197,22.7,194.1,19.8,190.6,19.8z M190.6,32.7l-25.6,16l-25.6-16v-6.4l25.6,16l25.6-16V32.7z"/>
	</g>
</g>
<g>
	
		<image style="overflow:visible;opacity:0.5;" width="468" height="179" xlink:href="E340468D.png"  transform="matrix(0.24 0 0 0.24 0.84 23.64)">
	</image>
	<g>
		<g>
			<path class="st0" d="M14.1,62.2c-2,0-3.9-0.6-5.6-1.7S5.5,58,4.5,56S3,52,3,49.6v-1.1c0-2.3,0.5-4.5,1.4-6.4s2.2-3.5,3.9-4.6
				s3.4-1.6,5.4-1.6c2.8,0,5.1,1,6.9,3s2.7,4.7,2.7,7.9v1.3h-19v1.4c0,2.1,0.4,4,1.3,5.7c0.9,1.8,2.1,3.1,3.6,4.1s3.2,1.5,5,1.5
				c1.7,0,3.2-0.3,4.3-0.8s2.3-1.4,3.2-2.6l0.9,0.6C20.7,60.9,17.9,62.2,14.1,62.2z M13.7,37.2c-2.5,0-4.6,0.9-6.3,2.8s-2.7,4.2-3,7
				H22v-0.3c0-1.7-0.4-3.3-1.1-4.8s-1.7-2.6-3-3.4S15.3,37.2,13.7,37.2z"/>
			<path class="st0" d="M47.4,61.8h-1.3v-17c0-2.5-0.6-4.4-1.7-5.7c-1.1-1.2-2.9-1.9-5.3-1.9c-2.8,0-5.1,1.2-6.8,3.7
				c-1,1.5-1.7,3.1-2.1,4.9v16H29V36.4h1.3v6c0.9-2.1,2.1-3.7,3.7-4.8s3.4-1.7,5.3-1.7c2.1,0,3.9,0.5,5.2,1.4s2.2,2.5,2.7,4.6
				c0.8-1.8,2-3.3,3.7-4.4s3.6-1.6,5.7-1.6c2.7,0,4.8,0.8,6.1,2.3s2,3.9,2,7v16.5h-1.3V45.3c0-2.8-0.6-4.8-1.7-6.2
				c-1.1-1.3-2.9-2-5.3-2c-3.1,0-5.5,1.3-7.3,3.7c-1,1.4-1.6,2.7-1.7,4V61.8z"/>
			<path class="st0" d="M88.6,61.8c-0.3-1.1-0.5-2.6-0.5-4.6c-1,1.6-2.4,2.9-4.1,3.8s-3.7,1.3-5.9,1.3c-2.3,0-4.2-0.6-5.7-1.9
				s-2.1-2.9-2.1-5c0-2.3,1.1-4.2,3.2-5.6s4.9-2.1,8.4-2.1h6.3v-3.7c0-2.1-0.7-3.8-2-4.9s-3.2-1.8-5.7-1.8c-2.3,0-4.2,0.6-5.8,1.8
				s-2.3,2.7-2.3,4.4l-1.3,0c0-2.1,0.9-3.8,2.7-5.3s4-2.2,6.7-2.2c2.7,0,4.9,0.7,6.5,2.1s2.4,3.3,2.5,5.8v12.1
				c0,2.8,0.2,4.7,0.7,5.7v0.2H88.6z M78.2,61c2.4,0,4.4-0.5,6.1-1.6s3-2.6,3.9-4.5v-6h-5.9c-3.6,0-6.4,0.7-8.3,2.2
				c-1.6,1.2-2.3,2.6-2.3,4.4c0,1.5,0.6,2.9,1.9,3.9S76.3,61,78.2,61z"/>
			<path class="st0" d="M97.2,28.5c0-0.4,0.1-0.7,0.4-0.9s0.6-0.4,0.9-0.4s0.7,0.1,0.9,0.4s0.4,0.6,0.4,0.9s-0.1,0.7-0.4,0.9
				s-0.6,0.4-0.9,0.4s-0.7-0.1-0.9-0.4S97.2,28.8,97.2,28.5z M99.2,61.8h-1.3V36.4h1.3V61.8z"/>
			<path class="st0" d="M109,61.8h-1.3v-36h1.3V61.8z"/>
		</g>
	</g>
</g>
<g>
</g>
<g>
</g>
<g>
</g>
<g>
</g>
<g>
</g>
<g>
</g>
</svg>
