<?xml version="1.0" encoding="utf-8"?>
<!-- Generator: Adobe Illustrator 21.0.0, SVG Export Plug-In . SVG Version: 6.00 Build 0)  -->
<svg version="1.1" id="Layer_1" xmlns="http://www.w3.org/2000/svg" xmlns:xlink="http://www.w3.org/1999/xlink" x="0px" y="0px"
	 viewBox="0 0 200 92" style="enable-background:new 0 0 200 92;" xml:space="preserve">
<style type="text/css">
	.st0{fill:#FFFFFF;}
	.st1{fill:#FCFCFC;}
</style>
<g>
	<path class="st0" d="M37.3,60c-1.7,0-3.3-0.4-4.6-1.3c-1.4-0.8-2.5-2-3.2-3.5c-0.8-1.5-1.2-3.2-1.2-5.1v-0.8c0-1.9,0.4-3.7,1.1-5.2
		c0.7-1.5,1.8-2.8,3.1-3.6c1.3-0.9,2.8-1.3,4.3-1.3c2.4,0,4.4,0.8,5.8,2.5c1.4,1.7,2.1,3.9,2.1,6.8v1.2H30.5v0.4
		c0,2.3,0.7,4.2,2,5.7s2.9,2.3,4.9,2.3c1.2,0,2.2-0.2,3.1-0.6s1.7-1.1,2.5-2.1l1.4,1.1C42.8,58.8,40.4,60,37.3,60z M36.9,41
		c-1.7,0-3.1,0.6-4.2,1.8c-1.1,1.2-1.8,2.9-2.1,4.9h12v-0.2c-0.1-1.9-0.6-3.5-1.7-4.7C39.9,41.6,38.6,41,36.9,41z"/>
	<path class="st0" d="M51.2,39.5l0.1,3.3c0.7-1.2,1.7-2.1,2.8-2.7c1.1-0.6,2.4-0.9,3.7-0.9c3.2,0,5.2,1.3,6,3.9
		c0.7-1.2,1.7-2.2,2.9-2.9c1.2-0.7,2.5-1,4-1c4.3,0,6.5,2.4,6.6,7.1v13.4h-2.2V46.4c0-1.8-0.4-3.1-1.2-4s-2-1.3-3.7-1.3
		c-1.6,0-2.9,0.5-4,1.5c-1.1,1-1.7,2.2-1.8,3.7v13.3h-2.2V46.2c0-1.7-0.4-3-1.2-3.9c-0.8-0.8-2-1.3-3.7-1.3c-1.4,0-2.6,0.4-3.6,1.2
		s-1.7,2-2.2,3.6v13.8h-2.2V39.5H51.2z"/>
	<path class="st0" d="M95.6,59.6c-0.2-0.6-0.4-1.6-0.4-2.8c-0.8,1-1.8,1.8-3,2.3c-1.2,0.6-2.5,0.8-3.8,0.8c-1.9,0-3.5-0.5-4.7-1.6
		s-1.8-2.4-1.8-4.1c0-2,0.8-3.5,2.4-4.6c1.6-1.1,3.9-1.7,6.8-1.7h4v-2.3c0-1.4-0.4-2.6-1.3-3.4c-0.9-0.8-2.2-1.2-3.9-1.2
		c-1.5,0-2.8,0.4-3.8,1.2s-1.5,1.7-1.5,2.9h-2.2c0-1.6,0.7-3,2.2-4.1s3.3-1.8,5.5-1.8s4,0.6,5.3,1.7c1.3,1.1,2,2.7,2,4.7V55
		c0,1.9,0.2,3.4,0.6,4.4v0.2C97.9,59.6,95.6,59.6,95.6,59.6z M88.6,58c1.5,0,2.8-0.4,4-1.1s2-1.7,2.6-2.9v-4.4h-4
		c-2.2,0-3.9,0.4-5.2,1.2c-1.2,0.8-1.9,1.9-1.9,3.2c0,1.1,0.4,2.1,1.3,2.8C86.3,57.5,87.3,58,88.6,58z"/>
	<path class="st0" d="M103.1,33.7c0-0.4,0.1-0.8,0.4-1.1s0.6-0.4,1.1-0.4s0.8,0.1,1.1,0.4c0.3,0.3,0.4,0.6,0.4,1.1s-0.1,0.8-0.4,1.1
		s-0.7,0.4-1.1,0.4c-0.5,0-0.8-0.1-1.1-0.4C103.3,34.5,103.1,34.1,103.1,33.7z M105.8,59.6h-2.2V39.5h2.2V59.6z"/>
	<path class="st0" d="M114.3,59.6h-2.2V31.1h2.2V59.6z"/>
</g>
<path class="st1" d="M167.1,27.5h-35.8c-2.5,0-4.4,2-4.4,4.5v26.8c0,2.5,2,4.5,4.5,4.5h35.8c2.5,0,4.5-2,4.5-4.5V32
	C171.6,29.5,169.6,27.5,167.1,27.5z M167.1,36.5l-17.9,11.2l-17.9-11.2V32l17.9,11.2L167.1,32V36.5z"/>
</svg>
