<?xml version="1.0" encoding="utf-8"?>
<!-- Generator: Adobe Illustrator 21.0.0, SVG Export Plug-In . SVG Version: 6.00 Build 0)  -->
<svg version="1.1" id="Layer_1" xmlns="http://www.w3.org/2000/svg" xmlns:xlink="http://www.w3.org/1999/xlink" x="0px" y="0px"
	 viewBox="0 0 92 92" style="enable-background:new 0 0 92 92;" xml:space="preserve">
<style type="text/css">
	.st0{fill:#FDFEFF;}
	.st1{fill:none;stroke:#FFFFFF;stroke-miterlimit:10;}
</style>
<g>
	
		<image style="overflow:visible;opacity:0.5;" width="187" height="155" xlink:href="87176B64.png"  transform="matrix(0.24 0 0 0.24 24.6 28.44)">
	</image>
	<g>
		<path class="st0" d="M61.5,30.5h-31c-2.1,0-3.9,1.7-3.9,3.9l0,23.3c0,2.1,1.7,3.9,3.9,3.9h31c2.1,0,3.9-1.7,3.9-3.9V34.4
			C65.4,32.2,63.7,30.5,61.5,30.5z M62.8,38.5L46.7,48.6L30.6,38.5v-4l16.1,10.1l16.1-10.1V38.5z"/>
	</g>
</g>
<g>
	
		<image style="overflow:visible;opacity:0.5;" width="334" height="334" xlink:href="87176B65.png"  transform="matrix(0.24 0 0 0.24 6.6 7.32)">
	</image>
	<g>
		<path class="st1" d="M45.6,9.9C65.7,9.9,82,26.2,82,46.3S65.7,82.6,45.6,82.6S9.3,66.3,9.3,46.3S25.5,9.9,45.6,9.9"/>
	</g>
</g>
<g>
</g>
<g>
</g>
<g>
</g>
<g>
</g>
<g>
</g>
<g>
</g>
</svg>
