<?xml version="1.0" encoding="utf-8"?>
<!-- Generator: Adobe Illustrator 21.0.0, SVG Export Plug-In . SVG Version: 6.00 Build 0)  -->
<svg version="1.1" id="Layer_1" xmlns="http://www.w3.org/2000/svg" xmlns:xlink="http://www.w3.org/1999/xlink" x="0px" y="0px"
	 viewBox="0 0 200 92" style="enable-background:new 0 0 200 92;" xml:space="preserve">
<style type="text/css">
	.st0{fill:#FFFFFF;}
</style>
<g>
	<path class="st0" d="M25.7,61.8c-2.1,0-3.9-0.5-5.6-1.5c-1.7-1-3-2.4-3.9-4.3c-0.9-1.8-1.4-3.9-1.4-6.1v-1c0-2.3,0.5-4.4,1.4-6.3
		c0.9-1.9,2.2-3.3,3.8-4.4c1.6-1.1,3.4-1.6,5.3-1.6c2.9,0,5.3,1,7,3c1.7,2,2.6,4.8,2.6,8.3v1.5H17.5v0.5c0,2.8,0.8,5,2.4,6.9
		c1.6,1.8,3.6,2.8,6,2.8c1.4,0,2.7-0.3,3.8-0.8s2.1-1.4,3-2.5l1.7,1.3C32.3,60.3,29.5,61.8,25.7,61.8z M25.2,38.9
		c-2,0-3.7,0.7-5.1,2.2c-1.4,1.5-2.2,3.5-2.5,6h14.6v-0.3c-0.1-2.3-0.7-4.2-2-5.7C28.9,39.6,27.2,38.9,25.2,38.9z"/>
	<path class="st0" d="M42.5,37l0.1,4c0.9-1.5,2-2.6,3.4-3.3c1.3-0.7,2.8-1.1,4.5-1.1c3.8,0,6.3,1.6,7.3,4.7c0.9-1.5,2-2.7,3.5-3.5
		c1.5-0.8,3.1-1.2,4.8-1.2c5.2,0,7.9,2.8,8,8.5v16.2h-2.7v-16c0-2.2-0.5-3.8-1.4-4.8c-0.9-1-2.4-1.6-4.5-1.6c-1.9,0-3.6,0.7-4.9,1.9
		c-1.3,1.2-2.1,2.7-2.2,4.5v16.1h-2.7V45.1c0-2.1-0.5-3.6-1.5-4.7c-1-1-2.5-1.5-4.5-1.5c-1.7,0-3.1,0.5-4.4,1.4s-2.1,2.4-2.7,4.3
		v16.7h-2.7V37H42.5z"/>
	<path class="st0" d="M96.2,61.3c-0.3-0.8-0.4-1.9-0.5-3.4c-0.9,1.2-2.1,2.2-3.6,2.8c-1.5,0.7-3,1-4.6,1c-2.3,0-4.2-0.7-5.7-2
		c-1.4-1.3-2.2-3-2.2-4.9c0-2.4,1-4.2,3-5.6s4.7-2.1,8.2-2.1h4.9v-2.8c0-1.7-0.5-3.1-1.6-4.1c-1.1-1-2.6-1.5-4.7-1.5
		c-1.9,0-3.4,0.5-4.6,1.4c-1.2,1-1.8,2.1-1.8,3.5l-2.7,0c0-1.9,0.9-3.6,2.7-5s4-2.1,6.6-2.1c2.7,0,4.8,0.7,6.4,2
		c1.6,1.4,2.4,3.2,2.4,5.7v11.5c0,2.4,0.2,4.1,0.7,5.3v0.3H96.2z M87.7,59.4c1.8,0,3.4-0.4,4.8-1.3c1.4-0.9,2.4-2,3.1-3.5v-5.3h-4.8
		c-2.7,0-4.8,0.5-6.3,1.5c-1.5,1-2.3,2.3-2.3,3.9c0,1.4,0.5,2.5,1.5,3.4C84.8,58.9,86.1,59.4,87.7,59.4z"/>
	<path class="st0" d="M105.3,30c0-0.5,0.2-0.9,0.5-1.3c0.3-0.3,0.8-0.5,1.3-0.5s1,0.2,1.4,0.5c0.3,0.3,0.5,0.8,0.5,1.3
		s-0.2,0.9-0.5,1.3c-0.3,0.3-0.8,0.5-1.4,0.5s-1-0.2-1.3-0.5C105.5,30.9,105.3,30.5,105.3,30z M108.5,61.3h-2.7V37h2.7V61.3z"/>
	<path class="st0" d="M118.8,61.3h-2.7V26.8h2.7V61.3z"/>
</g>
<path class="st0" d="M181.8,25.1H140c-2.9,0-5.2,2.3-5.2,5.2l0,31.4c0,2.9,2.3,5.2,5.2,5.2h41.8c2.9,0,5.2-2.3,5.2-5.2V30.3
	C187,27.4,184.7,25.1,181.8,25.1z M181.8,35.5l-20.9,13.1L140,35.5v-5.2l20.9,13.1l20.9-13.1V35.5z"/>
</svg>
