<?xml version="1.0" encoding="utf-8"?>
<!-- Generator: Adobe Illustrator 21.0.0, SVG Export Plug-In . SVG Version: 6.00 Build 0)  -->
<svg version="1.1" id="Layer_1" xmlns="http://www.w3.org/2000/svg" xmlns:xlink="http://www.w3.org/1999/xlink" x="0px" y="0px"
	 viewBox="0 0 200 92" style="enable-background:new 0 0 200 92;" xml:space="preserve">
<style type="text/css">
	.st0{fill:#FFFFFF;}
</style>
<g>
	<path class="st0" d="M46.2,50.4c0-2.4-2.1-4.1-6.2-5c-2.5-0.5-4.2-1.2-5.2-2.1c-1-0.8-1.5-2-1.5-3.4c0-1.5,0.6-2.7,1.9-3.6
		c1.2-1,2.9-1.4,4.9-1.4c2.2,0,3.9,0.5,5.2,1.5c1.3,1,2,2.4,2,4.2h-1c0-1.3-0.6-2.5-1.7-3.4c-1.1-0.9-2.6-1.4-4.5-1.4
		c-1.8,0-3.1,0.4-4.2,1.2c-1,0.8-1.5,1.7-1.5,2.9c0,0.9,0.2,1.6,0.6,2.1c0.4,0.5,1,1,1.9,1.4c0.9,0.4,2.1,0.8,3.8,1.2
		c1.7,0.4,3,0.8,3.9,1.4c1,0.5,1.7,1.1,2.1,1.8c0.4,0.7,0.6,1.6,0.6,2.6c0,1.6-0.6,2.9-1.9,3.8s-3,1.4-5.1,1.4
		c-2.3,0-4.1-0.5-5.4-1.5c-1.4-1-2.1-2.3-2.1-3.9h1c0.1,1.4,0.7,2.5,1.9,3.3c1.1,0.8,2.7,1.2,4.6,1.2c1.8,0,3.3-0.4,4.4-1.3
		C45.6,52.6,46.2,51.6,46.2,50.4z"/>
	<path class="st0" d="M52.4,29c0-0.3,0.1-0.5,0.3-0.7c0.2-0.2,0.4-0.3,0.7-0.3c0.3,0,0.5,0.1,0.7,0.3s0.3,0.4,0.3,0.7
		c0,0.3-0.1,0.5-0.3,0.7C54,29.9,53.7,30,53.4,30c-0.3,0-0.5-0.1-0.7-0.3C52.5,29.5,52.4,29.3,52.4,29z M53.9,55.3h-1V35.3h1V55.3z"
		/>
	<path class="st0" d="M59.6,45.1c0-3.2,0.7-5.7,2-7.5c1.3-1.8,3.2-2.7,5.5-2.7c1.5,0,2.8,0.3,4,1c1.2,0.7,2.1,1.7,2.8,3v-3.7h1V55
		c0,2.6-0.7,4.7-2,6.2c-1.4,1.5-3.2,2.2-5.5,2.2c-1.3,0-2.6-0.3-3.7-0.9c-1.1-0.6-2.1-1.4-2.9-2.5l0.7-0.7c0.8,1,1.6,1.7,2.6,2.3
		c0.9,0.5,2,0.8,3.3,0.8c2.1,0,3.7-0.6,4.8-1.9c1.2-1.3,1.7-3,1.8-5.3v-3.1c-0.7,1.1-1.6,2-2.8,2.6c-1.2,0.6-2.5,0.9-4,0.9
		c-2.3,0-4.2-0.9-5.5-2.8c-1.3-1.8-2-4.4-2-7.6V45.1z M60.6,45.5c0,2.9,0.6,5.1,1.7,6.8c1.1,1.6,2.7,2.5,4.8,2.5
		c1.7,0,3.1-0.4,4.3-1.2s2-1.9,2.5-3.3v-9.1c-1.1-3.5-3.4-5.2-6.8-5.2c-2.1,0-3.7,0.8-4.8,2.4C61.2,39.9,60.6,42.3,60.6,45.5z"/>
	<path class="st0" d="M82.4,39.9c0.7-1.6,1.6-2.8,2.9-3.7c1.3-0.9,2.7-1.4,4.2-1.4c2.2,0,3.8,0.6,4.8,1.8c1,1.2,1.6,3.1,1.6,5.5
		v13.1h-1V42.2c0-2.2-0.5-3.7-1.3-4.8c-0.9-1-2.2-1.5-4.1-1.5c-1.7,0-3.2,0.6-4.5,1.8c-1.3,1.2-2.1,2.8-2.6,4.8v12.8h-1V35.3h1V39.9
		z"/>
	<path class="st0" d="M121.1,28.3v18.4c0,2.5-0.8,4.6-2.4,6.3c-1.6,1.6-3.7,2.5-6.5,2.7l-0.9,0c-3,0-5.3-0.8-7.1-2.4
		s-2.6-3.8-2.7-6.6V28.3h3.5v18.3c0,2,0.5,3.5,1.6,4.6s2.6,1.6,4.6,1.6c2,0,3.6-0.5,4.6-1.6c1.1-1.1,1.6-2.6,1.6-4.5V28.3H121.1z"/>
	<path class="st0" d="M143.2,45.5c0,3.1-0.7,5.5-2.1,7.4c-1.4,1.9-3.3,2.8-5.7,2.8c-2.4,0-4.4-0.8-5.8-2.3v9.7h-3.4V35.3h3.1
		l0.2,2.2c1.4-1.7,3.3-2.6,5.8-2.6c2.4,0,4.3,0.9,5.7,2.7c1.4,1.8,2.1,4.3,2.1,7.6V45.5z M139.7,45.1c0-2.3-0.5-4.1-1.4-5.4
		c-1-1.3-2.3-2-4-2c-2.1,0-3.6,0.9-4.7,2.8v9.6c1,1.8,2.6,2.7,4.7,2.7c1.6,0,3-0.7,3.9-2C139.3,49.6,139.7,47.7,139.7,45.1z"/>
</g>
<g>
	<g>
		<path id="XMLID_5_" class="st0" d="M169.4,27.1v-0.8c0-2.2-1.8-4-4-4h-6.5c-2.2,0-4,1.8-4,4v0.8H169.4z"/>
		<rect id="XMLID_4_" x="154.8" y="28.8" class="st0" width="14.6" height="25.9"/>
	</g>
	<g>
		<path class="st0" d="M162.1,69.7c-0.2,0-0.5-0.1-0.6-0.4L154.9,55c-0.1-0.2-0.1-0.4,0-0.6c0.1-0.2,0.3-0.3,0.5-0.3h13.3
			c0.2,0,0.4,0.1,0.5,0.3s0.1,0.4,0,0.6l-6.6,14.4C162.6,69.6,162.3,69.7,162.1,69.7z M156.5,55.4l5.6,12.2l5.6-12.2L156.5,55.4
			L156.5,55.4z"/>
	</g>
	<polygon id="XMLID_1_" class="st0" points="159.3,63 165,63 162,68.9 	"/>
</g>
</svg>
