<?xml version="1.0" encoding="utf-8"?>
<!-- Generator: Adobe Illustrator 21.0.0, SVG Export Plug-In . SVG Version: 6.00 Build 0)  -->
<svg version="1.1" id="Layer_1" xmlns="http://www.w3.org/2000/svg" xmlns:xlink="http://www.w3.org/1999/xlink" x="0px" y="0px"
	 viewBox="0 0 200 92" style="enable-background:new 0 0 200 92;" xml:space="preserve">
<style type="text/css">
	.st0{fill:#FFFFFF;}
</style>
<g>
	<path class="st0" d="M34.9,52.4c0-3-2.5-5-7.5-6c-3-0.6-5.1-1.5-6.3-2.5c-1.2-1-1.8-2.4-1.8-4.2c0-1.8,0.8-3.2,2.3-4.4
		c1.5-1.2,3.5-1.7,5.9-1.7c2.6,0,4.7,0.6,6.3,1.9c1.6,1.3,2.4,2.9,2.4,5.1h-1.2c0-1.6-0.7-3-2.1-4.1c-1.4-1.1-3.2-1.6-5.4-1.6
		c-2.1,0-3.8,0.5-5.1,1.4c-1.2,0.9-1.9,2.1-1.9,3.5c0,1.1,0.2,2,0.7,2.6c0.5,0.6,1.2,1.2,2.3,1.7c1,0.5,2.6,1,4.6,1.4
		c2,0.5,3.6,1,4.8,1.6s2,1.4,2.5,2.2c0.5,0.9,0.8,1.9,0.8,3.2c0,1.9-0.8,3.5-2.4,4.6s-3.6,1.8-6.2,1.8c-2.7,0-4.9-0.6-6.6-1.9
		c-1.7-1.2-2.5-2.8-2.5-4.8h1.2c0.1,1.7,0.9,3,2.3,4c1.4,1,3.3,1.4,5.6,1.4c2.2,0,3.9-0.5,5.3-1.5C34.2,55.1,34.9,53.9,34.9,52.4z"
		/>
	<path class="st0" d="M42.5,26.5c0-0.3,0.1-0.6,0.4-0.9c0.2-0.2,0.5-0.4,0.9-0.4c0.3,0,0.6,0.1,0.9,0.4s0.4,0.5,0.4,0.9
		c0,0.3-0.1,0.6-0.4,0.9c-0.2,0.2-0.5,0.4-0.9,0.4c-0.3,0-0.6-0.1-0.9-0.4C42.6,27.1,42.5,26.8,42.5,26.5z M44.3,58.4h-1.2V34.1h1.2
		V58.4z"/>
	<path class="st0" d="M51.2,46c0-3.9,0.8-6.9,2.4-9.1c1.6-2.2,3.9-3.3,6.7-3.3c1.8,0,3.4,0.4,4.8,1.2c1.4,0.8,2.5,2,3.4,3.6v-4.4
		h1.2V58c0,3.2-0.8,5.7-2.5,7.5c-1.6,1.8-3.9,2.7-6.7,2.7c-1.6,0-3.1-0.4-4.5-1.1c-1.4-0.7-2.5-1.7-3.5-3l0.9-0.8
		c0.9,1.2,2,2.1,3.1,2.7s2.4,1,4,1c2.5,0,4.4-0.8,5.8-2.3c1.4-1.5,2.1-3.7,2.2-6.4v-3.7c-0.8,1.4-2,2.4-3.4,3.2
		c-1.4,0.7-3.1,1.1-4.9,1.1c-2.8,0-5-1.1-6.7-3.3c-1.6-2.2-2.4-5.3-2.4-9.2V46z M52.4,46.5c0,3.5,0.7,6.2,2.1,8.2c1.4,2,3.3,3,5.8,3
		c2.1,0,3.8-0.5,5.2-1.4c1.4-1,2.5-2.3,3.1-4v-11c-1.3-4.2-4.1-6.3-8.2-6.3c-2.5,0-4.4,1-5.8,2.9C53.1,39.7,52.4,42.6,52.4,46.5z"/>
	<path class="st0" d="M78.7,39.7c0.8-1.9,2-3.4,3.5-4.5c1.5-1.1,3.2-1.6,5.1-1.6c2.6,0,4.5,0.7,5.8,2.2c1.3,1.5,1.9,3.7,1.9,6.7
		v15.9h-1.2V42.5c0-2.6-0.5-4.5-1.6-5.8c-1-1.2-2.7-1.9-5-1.9c-2.1,0-3.9,0.7-5.4,2.2c-1.5,1.5-2.6,3.4-3.1,5.8v15.6h-1.2V34.1h1.2
		V39.7z"/>
	<path class="st0" d="M125.7,25.7v22.2c0,3.1-1,5.6-2.9,7.6c-1.9,2-4.5,3.1-7.8,3.3l-1.1,0c-3.6,0-6.4-1-8.6-2.9s-3.2-4.6-3.2-8
		V25.7h4.3v22.1c0,2.4,0.7,4.2,2,5.5c1.3,1.3,3.2,2,5.6,2c2.4,0,4.3-0.7,5.6-2c1.3-1.3,1.9-3.1,1.9-5.5V25.7H125.7z"/>
	<path class="st0" d="M152.3,46.5c0,3.7-0.8,6.7-2.5,8.9s-4,3.4-6.9,3.4c-3,0-5.3-0.9-7-2.8v11.7h-4.2V34.1h3.8l0.2,2.7
		c1.7-2.1,4-3.1,7.1-3.1c2.9,0,5.2,1.1,6.9,3.3c1.7,2.2,2.5,5.3,2.5,9.2V46.5z M148.2,46c0-2.7-0.6-4.9-1.8-6.5
		c-1.2-1.6-2.8-2.4-4.8-2.4c-2.5,0-4.4,1.1-5.7,3.3v11.6c1.2,2.2,3.1,3.3,5.7,3.3c2,0,3.6-0.8,4.8-2.4
		C147.6,51.5,148.2,49.1,148.2,46z"/>
</g>
<g>
	<g>
		<path id="XMLID_5_" class="st0" d="M183.9,23.7v-0.9c0-2.6-2.1-4.7-4.7-4.7h-7.7c-2.6,0-4.7,2.1-4.7,4.7v0.9H183.9z"/>
		<rect id="XMLID_4_" x="166.8" y="25.8" class="st0" width="17.2" height="30.5"/>
	</g>
	<g>
		<path class="st0" d="M175.3,73.9c-0.3,0-0.6-0.2-0.7-0.4l-7.8-16.9c-0.1-0.2-0.1-0.5,0-0.7c0.1-0.2,0.4-0.3,0.6-0.3h15.6
			c0.3,0,0.5,0.1,0.6,0.3c0.1,0.2,0.2,0.5,0,0.7L176,73.5C175.9,73.7,175.6,73.9,175.3,73.9z M168.7,57l6.6,14.3L182,57L168.7,57
			L168.7,57z"/>
	</g>
	<polygon id="XMLID_1_" class="st0" points="172,66 178.7,66 175.2,72.9 	"/>
</g>
</svg>
