<?xml version="1.0" encoding="utf-8"?>
<!-- Generator: Adobe Illustrator 21.0.0, SVG Export Plug-In . SVG Version: 6.00 Build 0)  -->
<svg version="1.1" id="Layer_1" xmlns="http://www.w3.org/2000/svg" xmlns:xlink="http://www.w3.org/1999/xlink" x="0px" y="0px"
	 viewBox="0 0 92 92" style="enable-background:new 0 0 92 92;" xml:space="preserve">
<style type="text/css">
	.st0{fill:none;stroke:#FFFFFF;stroke-miterlimit:10;}
	.st1{fill:#FFFFFF;}
</style>
<circle class="st0" cx="46.5" cy="45.1" r="36.4"/>
<g>
	<g>
		<path id="XMLID_5_" class="st1" d="M53.8,27.5v-0.8c0-2.2-1.8-4-4-4h-6.5c-2.2,0-4,1.8-4,4v0.8H53.8z"/>
		<rect id="XMLID_4_" x="39.2" y="29.3" class="st1" width="14.6" height="25.9"/>
	</g>
	<g>
		<path class="st1" d="M46.5,70.2c-0.2,0-0.5-0.1-0.6-0.4l-6.6-14.4c-0.1-0.2-0.1-0.4,0-0.6c0.1-0.2,0.3-0.3,0.5-0.3h13.3
			c0.2,0,0.4,0.1,0.5,0.3s0.1,0.4,0,0.6l-6.6,14.4C47,70.1,46.8,70.2,46.5,70.2z M40.9,55.9L46.5,68l5.6-12.2L40.9,55.9L40.9,55.9z"
			/>
	</g>
	<polygon id="XMLID_1_" class="st1" points="43.7,63.5 49.4,63.5 46.4,69.4 	"/>
</g>
<g>
</g>
<g>
</g>
<g>
</g>
<g>
</g>
<g>
</g>
<g>
</g>
</svg>
