<?xml version="1.0" encoding="utf-8"?>
<!-- Generator: Adobe Illustrator 21.0.0, SVG Export Plug-In . SVG Version: 6.00 Build 0)  -->
<svg version="1.1" id="Layer_1" xmlns="http://www.w3.org/2000/svg" xmlns:xlink="http://www.w3.org/1999/xlink" x="0px" y="0px"
	 viewBox="0 0 200 92" style="enable-background:new 0 0 200 92;" xml:space="preserve">
<style type="text/css">
	.st0{fill:#FFFFFF;}
	.st1{fill:none;stroke:#FFFFFF;stroke-miterlimit:10;}
</style>
<g>
	<g>
		<path id="XMLID_5_" class="st0" d="M112.1,23.4v-0.9c0-2.5-2-4.5-4.5-4.5h-7.3c-2.5,0-4.5,2-4.5,4.5v0.9H112.1z"/>
		<rect id="XMLID_4_" x="95.8" y="25.3" class="st0" width="16.4" height="29.1"/>
	</g>
	<g>
		<path class="st0" d="M103.9,71.2c-0.3,0-0.5-0.2-0.7-0.4l-7.4-16.1c-0.1-0.2-0.1-0.5,0-0.7c0.1-0.2,0.4-0.3,0.6-0.3h14.9
			c0.2,0,0.5,0.1,0.6,0.3s0.1,0.5,0,0.7l-7.4,16.1C104.5,71.1,104.2,71.2,103.9,71.2z M97.6,55.1l6.3,13.7l6.3-13.7L97.6,55.1
			L97.6,55.1z"/>
	</g>
	<polygon id="XMLID_1_" class="st0" points="100.8,63.6 107.1,63.6 103.8,70.3 	"/>
</g>
<circle class="st1" cx="104" cy="42.9" r="37"/>
</svg>
